<svg width="25" height="26" viewBox="0 0 25 26" fill="none" xmlns="http://www.w3.org/2000/svg">
<path d="M12.1875 15.7773C13.6299 15.7773 14.7991 14.6081 14.7991 13.1657C14.7991 11.7234 13.6299 10.5541 12.1875 10.5541C10.7452 10.5541 9.57591 11.7234 9.57591 13.1657C9.57591 14.6081 10.7452 15.7773 12.1875 15.7773Z" fill="#8594A4"/>
<path d="M23.8521 15.5597L23.8266 15.5391L22.1094 14.1924C22.0007 14.1064 21.9139 13.9958 21.8562 13.8698C21.7985 13.7437 21.7715 13.6057 21.7775 13.4672V12.8382C21.7721 12.7006 21.7994 12.5636 21.8572 12.4386C21.915 12.3135 22.0016 12.204 22.11 12.1189L23.8266 10.7718L23.8521 10.7511C24.1169 10.5306 24.2945 10.2231 24.3533 9.88356C24.4121 9.54405 24.3483 9.1947 24.1731 8.89796L21.8494 4.87718C21.8467 4.87339 21.8443 4.86939 21.8423 4.86521C21.6662 4.57258 21.3932 4.35086 21.0707 4.23855C20.7482 4.12624 20.3965 4.13043 20.0767 4.2504L20.0577 4.25747L18.0391 5.06979C17.9117 5.1213 17.7739 5.1418 17.637 5.1296C17.5001 5.11739 17.3681 5.07284 17.2518 4.9996C17.0734 4.88716 16.892 4.78088 16.7078 4.68077C16.5883 4.61598 16.4857 4.52403 16.4083 4.41232C16.3309 4.30061 16.2808 4.17227 16.2622 4.03766L15.958 1.88363L15.9515 1.84446C15.8853 1.51082 15.7062 1.21015 15.4445 0.992962C15.1827 0.775776 14.8541 0.655315 14.514 0.651825H9.86101C9.51609 0.652929 9.18263 0.775722 8.91937 0.998572C8.65611 1.22142 8.47994 1.53003 8.4219 1.87003L8.41701 1.9005L8.11395 4.05888C8.09536 4.19311 8.04569 4.32114 7.9689 4.43279C7.89211 4.54444 7.79031 4.63661 7.67161 4.70199C7.48681 4.80152 7.30535 4.90713 7.12753 5.01864C7.01145 5.09143 6.87977 5.13565 6.74329 5.14766C6.6068 5.15967 6.46942 5.13914 6.34241 5.08774L4.32223 4.27162L4.30319 4.264C3.98297 4.1439 3.63079 4.13987 3.30791 4.2526C2.98503 4.36533 2.71188 4.58769 2.536 4.88099L2.52893 4.89296L0.201882 8.91646C0.0264851 9.2135 -0.0375316 9.56324 0.0212789 9.90314C0.0800894 10.243 0.257892 10.551 0.522891 10.7718L0.548463 10.7925L2.26559 12.1391C2.37433 12.2251 2.46112 12.3357 2.51881 12.4618C2.57651 12.5878 2.60347 12.7258 2.59748 12.8643V13.4933C2.60293 13.6309 2.57564 13.7679 2.51785 13.893C2.46006 14.018 2.37342 14.1275 2.26505 14.2126L0.548463 15.5597L0.522891 15.5804C0.258154 15.8009 0.0804962 16.1085 0.0216859 16.448C-0.0371244 16.7875 0.026748 17.1368 0.201882 17.4336L2.52566 21.4543C2.52834 21.4581 2.5307 21.4621 2.53274 21.4663C2.70882 21.7589 2.98182 21.9807 3.30434 22.093C3.62686 22.2053 3.97854 22.2011 4.29829 22.0811L4.31733 22.074L6.33425 21.2617C6.46166 21.2102 6.59948 21.1897 6.73636 21.2019C6.87324 21.2141 7.00526 21.2587 7.12154 21.3319C7.3 21.4447 7.48136 21.551 7.66563 21.6507C7.7851 21.7155 7.88767 21.8075 7.96507 21.9192C8.04247 22.0309 8.09254 22.1592 8.11123 22.2939L8.41374 24.4479L8.42027 24.4871C8.4866 24.8212 8.66611 25.1223 8.92856 25.3396C9.191 25.5568 9.52032 25.6769 9.86101 25.6797H14.514C14.8589 25.6786 15.1924 25.5558 15.4556 25.3329C15.7189 25.1101 15.8951 24.8015 15.9531 24.4615L15.958 24.431L16.2611 22.2726C16.2799 22.1382 16.33 22.01 16.4073 21.8983C16.4846 21.7866 16.5869 21.6946 16.7061 21.6295C16.8922 21.5294 17.0739 21.4233 17.2502 21.3129C17.3663 21.2401 17.498 21.1959 17.6345 21.1839C17.7709 21.1718 17.9083 21.1924 18.0353 21.2438L20.0555 22.0572L20.0746 22.0648C20.3947 22.1851 20.747 22.1893 21.0699 22.0765C21.3929 21.9638 21.666 21.7413 21.8417 21.4478C21.8439 21.4437 21.8463 21.4397 21.8488 21.4358L24.1726 17.4156C24.3483 17.1186 24.4126 16.7688 24.3538 16.4287C24.2951 16.0886 24.1173 15.7806 23.8521 15.5597ZM16.5353 13.3703C16.4957 14.2129 16.2121 15.0258 15.719 15.7102C15.226 16.3945 14.5447 16.9209 13.7581 17.2253C12.9714 17.5297 12.1133 17.5989 11.288 17.4246C10.4627 17.2503 9.70583 16.84 9.10943 16.2435C8.51303 15.647 8.10278 14.8901 7.92858 14.0648C7.75438 13.2395 7.82373 12.3814 8.12819 11.5947C8.43265 10.8081 8.95911 10.1269 9.64355 9.63395C10.328 9.14098 11.1409 8.8575 11.9835 8.81798C12.5884 8.79135 13.1922 8.89088 13.7565 9.11024C14.3209 9.3296 14.8334 9.664 15.2615 10.0922C15.6896 10.5203 16.0239 11.0329 16.2432 11.5973C16.4625 12.1616 16.562 12.7654 16.5353 13.3703Z" fill="#1D3954"/>
</svg>
