<svg width="23" height="20" viewBox="0 0 23 20" fill="none" xmlns="http://www.w3.org/2000/svg">
<path d="M0 2.9C0 2.40294 0.402944 2 0.9 2H22.1C22.5971 2 23 2.40294 23 2.9C23 3.39706 22.5971 3.8 22.1 3.8H0.899999C0.402943 3.8 0 3.39706 0 2.9Z" fill="#1D3954"/>
<path d="M0 9.9C0 9.40294 0.402944 9 0.9 9H22.1C22.5971 9 23 9.40294 23 9.9C23 10.3971 22.5971 10.8 22.1 10.8H0.899999C0.402943 10.8 0 10.3971 0 9.9Z" fill="#1D3954"/>
<path d="M0 16.9C0 16.4029 0.402944 16 0.9 16H22.1C22.5971 16 23 16.4029 23 16.9C23 17.3971 22.5971 17.8 22.1 17.8H0.899999C0.402943 17.8 0 17.3971 0 16.9Z" fill="#1D3954"/>
<circle cx="15.75" cy="2.75" r="2.75" fill="#8594A4"/>
<circle cx="5.75" cy="9.75" r="2.75" fill="#8594A4"/>
<circle cx="15.75" cy="16.75" r="2.75" fill="#8594A4"/>
</svg>
