<svg width="26" height="26" viewBox="0 0 26 26" fill="none" xmlns="http://www.w3.org/2000/svg">
<path d="M3.27922 17.7105C3.126 17.7106 2.97603 17.6663 2.84742 17.5831C2.71881 17.4998 2.61705 17.3811 2.55442 17.2412C1.79663 15.5488 1.4744 13.6936 1.61711 11.8448C1.75982 9.99593 2.36293 8.21219 3.37147 6.65609C4.38002 5.1 5.76194 3.82102 7.39131 2.93572C9.02068 2.05042 10.8457 1.58693 12.7 1.58749C12.9106 1.58749 13.1124 1.67112 13.2613 1.81998C13.4102 1.96884 13.4938 2.17073 13.4938 2.38124V12.7C13.4938 12.8533 13.4495 13.0033 13.3661 13.1319C13.2827 13.2605 13.1639 13.3622 13.024 13.4248L3.60317 17.6391C3.50145 17.6856 3.39104 17.7099 3.27922 17.7105Z" fill="#8594A4"/>
<path d="M15.557 3.38237C15.4995 3.3707 15.44 3.37194 15.383 3.38602C15.326 3.40009 15.2728 3.42664 15.2273 3.46375C15.1818 3.50086 15.1451 3.54761 15.1198 3.60062C15.0946 3.65363 15.0814 3.71159 15.0813 3.77031V12.7C15.0809 13.1596 14.9477 13.6093 14.6977 13.9949C14.4478 14.3806 14.0917 14.6858 13.6724 14.8739L5.11622 18.7027C5.06319 18.7264 5.016 18.7614 4.97798 18.8053C4.93996 18.8492 4.91204 18.901 4.89619 18.9568C4.88034 19.0127 4.87695 19.0714 4.88625 19.1287C4.89555 19.186 4.91733 19.2406 4.95003 19.2886C5.60483 20.2517 6.41763 21.0972 7.3541 21.7894C9.12837 23.1093 11.2824 23.8191 13.4938 23.8125C19.1835 23.8125 23.8125 19.1834 23.8125 13.4938C23.8125 8.51049 20.2615 4.34082 15.557 3.38237Z" fill="#1D3954"/>
</svg>
