<svg width="26" height="26" viewBox="0 0 26 26" fill="none" xmlns="http://www.w3.org/2000/svg">
<g clip-path="url(#clip0)">
<path d="M12.7 14.4859C13.6863 14.4859 14.4859 13.6863 14.4859 12.7C14.4859 11.7137 13.6863 10.9141 12.7 10.9141C11.7136 10.9141 10.9141 11.7137 10.9141 12.7C10.9141 13.6863 11.7136 14.4859 12.7 14.4859Z" fill="#8594A4"/>
<path d="M9.43769 16.955C9.28344 16.9551 9.13091 16.9226 8.99015 16.8595C8.8494 16.7964 8.72363 16.7041 8.62112 16.5889C7.66903 15.5174 7.14314 14.1339 7.14314 12.7005C7.14314 11.2671 7.66903 9.88358 8.62112 8.81211C8.71554 8.70217 8.83092 8.61214 8.96051 8.54726C9.0901 8.48239 9.23132 8.44398 9.37591 8.43426C9.52051 8.42455 9.66559 8.44373 9.8027 8.49069C9.9398 8.53765 10.0662 8.61144 10.1745 8.70776C10.2827 8.80408 10.3708 8.92101 10.4334 9.05171C10.496 9.18241 10.5319 9.32427 10.5391 9.46901C10.5463 9.61376 10.5246 9.75849 10.4753 9.89475C10.4259 10.031 10.35 10.1561 10.2518 10.2627C9.65494 10.9346 9.32529 11.802 9.32529 12.7007C9.32529 13.5994 9.65494 14.4669 10.2518 15.1388C10.3914 15.296 10.4827 15.4902 10.5146 15.6981C10.5465 15.906 10.5176 16.1186 10.4315 16.3105C10.3454 16.5023 10.2057 16.6652 10.0292 16.7795C9.85275 16.8939 9.64699 16.9548 9.4367 16.955H9.43769ZM15.9623 16.955C15.752 16.9548 15.5463 16.8939 15.3698 16.7795C15.1933 16.6652 15.0536 16.5023 14.9675 16.3105C14.8814 16.1186 14.8526 15.906 14.8844 15.6981C14.9163 15.4902 15.0076 15.296 15.1472 15.1388C15.7441 14.4669 16.0737 13.5994 16.0737 12.7007C16.0737 11.802 15.7441 10.9346 15.1472 10.2627C15.049 10.1561 14.9731 10.031 14.9237 9.89475C14.8744 9.75849 14.8527 9.61376 14.8599 9.46901C14.8671 9.32427 14.903 9.18241 14.9656 9.05171C15.0283 8.92101 15.1163 8.80408 15.2245 8.70776C15.3328 8.61144 15.4592 8.53765 15.5963 8.49069C15.7334 8.44373 15.8785 8.42455 16.0231 8.43426C16.1677 8.44398 16.3089 8.48239 16.4385 8.54726C16.5681 8.61214 16.6835 8.70217 16.7779 8.81211C17.73 9.88358 18.2559 11.2671 18.2559 12.7005C18.2559 14.1339 17.73 15.5174 16.7779 16.5889C16.6755 16.704 16.5499 16.7962 16.4093 16.8593C16.2687 16.9224 16.1164 16.955 15.9623 16.955Z" fill="#8594A4"/>
<path d="M6.91008 19.4826C6.76037 19.4827 6.61225 19.452 6.47498 19.3922C6.33771 19.3325 6.21426 19.245 6.11236 19.1353C4.48036 17.3894 3.57251 15.0887 3.57251 12.6988C3.57251 10.3088 4.48036 8.00813 6.11236 6.26218C6.21005 6.15661 6.32764 6.07138 6.45837 6.0114C6.5891 5.95142 6.7304 5.91788 6.87414 5.9127C7.01788 5.90751 7.16123 5.93079 7.29594 5.9812C7.43066 6.0316 7.55408 6.10814 7.65911 6.20641C7.76415 6.30467 7.84872 6.42273 7.90797 6.5538C7.96722 6.68486 7.99998 6.82634 8.00437 6.97011C8.00876 7.11388 7.98468 7.25709 7.93353 7.39153C7.88238 7.52596 7.80516 7.64895 7.70631 7.75344C6.4525 9.09501 5.75504 10.8627 5.75504 12.699C5.75504 14.5353 6.4525 16.303 7.70631 17.6446C7.85117 17.8 7.94751 17.9943 7.98353 18.2037C8.01955 18.413 7.99368 18.6284 7.90909 18.8233C7.8245 19.0181 7.68487 19.1841 7.50732 19.3008C7.32978 19.4175 7.12204 19.4798 6.90959 19.4801L6.91008 19.4826ZM18.4899 19.4826C18.2775 19.4823 18.0697 19.4199 17.8922 19.3033C17.7146 19.1866 17.575 19.0206 17.4904 18.8257C17.4058 18.6309 17.3799 18.4155 17.416 18.2061C17.452 17.9968 17.5483 17.8025 17.6932 17.647C18.947 16.3055 19.6444 14.5377 19.6444 12.7015C19.6444 10.8652 18.947 9.09749 17.6932 7.75592C17.5943 7.65143 17.5171 7.52844 17.466 7.39401C17.4148 7.25958 17.3907 7.11636 17.3951 6.97259C17.3995 6.82882 17.4323 6.68734 17.4915 6.55628C17.5508 6.42521 17.6353 6.30715 17.7404 6.20889C17.8454 6.11062 17.9688 6.03408 18.1035 5.98368C18.2383 5.93327 18.3816 5.90999 18.5253 5.91518C18.6691 5.92036 18.8104 5.9539 18.9411 6.01388C19.0719 6.07386 19.1894 6.15909 19.2871 6.26466C20.9191 8.01061 21.827 10.3113 21.827 12.7012C21.827 15.0912 20.9191 17.3919 19.2871 19.1378C19.1851 19.247 19.0616 19.3339 18.9244 19.3932C18.7873 19.4526 18.6393 19.483 18.4899 19.4826Z" fill="#1D3954"/>
<path d="M21.2824 21.7289C21.0717 21.7289 20.8656 21.6678 20.6888 21.5532C20.512 21.4386 20.3722 21.2752 20.2862 21.0829C20.2003 20.8905 20.1718 20.6774 20.2043 20.4692C20.2368 20.2611 20.3288 20.0667 20.4693 19.9097C22.2392 17.9253 23.2174 15.3591 23.2174 12.7C23.2174 10.0409 22.2392 7.47474 20.4693 5.49027C20.2824 5.27372 20.1881 4.99247 20.2065 4.70702C20.2249 4.42158 20.3546 4.15478 20.5677 3.96401C20.7808 3.77325 21.0603 3.67378 21.3461 3.68701C21.6318 3.70023 21.9009 3.8251 22.0955 4.03473C24.2236 6.41944 25.3997 9.50385 25.3997 12.7C25.3997 15.8962 24.2236 18.9806 22.0955 21.3653C21.9932 21.4797 21.8678 21.5712 21.7277 21.6338C21.5876 21.6965 21.4359 21.7289 21.2824 21.7289ZM4.11757 21.7289C3.96389 21.7292 3.81189 21.697 3.67158 21.6343C3.53126 21.5716 3.40581 21.4799 3.30348 21.3653C1.17542 18.9806 -0.000696182 15.8962 -0.000696182 12.7C-0.000696182 9.50385 1.17542 6.41944 3.30348 4.03473C3.49807 3.8251 3.76719 3.70023 4.05291 3.68701C4.33864 3.67378 4.61814 3.77325 4.83127 3.96401C5.0444 4.15478 5.17412 4.42158 5.19253 4.70702C5.21093 4.99247 5.11654 5.27372 4.92967 5.49027C3.15975 7.47474 2.18163 10.0409 2.18163 12.7C2.18163 15.3591 3.15975 17.9253 4.92967 19.9097C5.0701 20.0667 5.16213 20.2609 5.19465 20.469C5.22717 20.6771 5.19879 20.8901 5.11294 21.0824C5.02709 21.2747 4.88744 21.4381 4.71082 21.5528C4.5342 21.6675 4.32817 21.7287 4.11757 21.7289Z" fill="#1D3954"/>
</g>
<defs>
<clipPath id="clip0">
<rect width="25.4" height="25.4" fill="white"/>
</clipPath>
</defs>
</svg>
