<svg width="10" height="16" viewBox="0 0 10 16" fill="none" xmlns="http://www.w3.org/2000/svg">
<path d="M1.10339 4.29074C1.10339 4.29074 1.16262 2.93351 2.48283 1.84526C3.26673 1.19913 4.20816 1.012 5.0517 1.00048C5.82203 0.991023 6.51051 1.1214 6.92221 1.3221C7.62591 1.66676 9 2.50577 9 4.29074C9 6.16906 7.79988 7.02041 6.43566 7.95854C5.07144 8.89668 4.72267 9.81671 4.72267 10.8712" stroke="white" stroke-width="1.64513" stroke-miterlimit="10" stroke-linecap="round"/>
<path d="M4.72272 15.3127C5.44958 15.3127 6.03882 14.7234 6.03882 13.9966C6.03882 13.2697 5.44958 12.6805 4.72272 12.6805C3.99585 12.6805 3.40662 13.2697 3.40662 13.9966C3.40662 14.7234 3.99585 15.3127 4.72272 15.3127Z" fill="white"/>
</svg>
