<svg width="124" height="43" viewBox="0 0 124 43" fill="none" xmlns="http://www.w3.org/2000/svg">
<mask id="mask0" mask-type="alpha" maskUnits="userSpaceOnUse" x="42" y="9" width="78" height="29">
<path d="M42.61 9.16666H119.212V37.1667H42.61V9.16666Z" fill="#C4C4C4"/>
</mask>
<g mask="url(#mask0)">
<path d="M46.8327 32.0333L42.3826 25.7963L38.0115 32.0333H33.1137L39.9337 22.896L33.4561 14.0667H38.3012L42.5406 19.893L46.7011 14.0667H51.3092L44.8842 22.742L51.7568 32.0333H46.8327Z" fill="#1D3954"/>
<path d="M63.7932 32.3413C61.16 32.3413 59.1061 31.6312 57.6315 30.211C56.1745 28.7908 55.446 26.7631 55.446 24.128V14.0667H59.7118V23.974C59.7118 27.1909 61.081 28.7993 63.8196 28.7993C65.1537 28.7993 66.1719 28.4143 66.8741 27.6443C67.5763 26.8572 67.9274 25.6338 67.9274 23.974V14.0667H72.1405V24.128C72.1405 26.7631 71.4032 28.7908 69.9286 30.211C68.4716 31.6312 66.4264 32.3413 63.7932 32.3413Z" fill="#1D3954"/>
<path d="M91.7338 22.6907C92.7871 23.0158 93.6122 23.5633 94.209 24.3333C94.8059 25.0862 95.1043 26.0188 95.1043 27.131C95.1043 28.7052 94.4723 29.9201 93.2084 30.7757C91.962 31.6141 90.1363 32.0333 87.7313 32.0333H78.1991V14.0667H87.2047C89.4517 14.0667 91.1721 14.4859 92.3658 15.3243C93.577 16.1628 94.1827 17.3007 94.1827 18.738C94.1827 19.6107 93.9632 20.3892 93.5244 21.0737C93.1031 21.7581 92.5062 22.2971 91.7338 22.6907ZM82.4386 17.198V21.433H86.6781C87.7313 21.433 88.5301 21.2533 89.0743 20.894C89.6185 20.5347 89.8906 20.0042 89.8906 19.3027C89.8906 18.6011 89.6185 18.0792 89.0743 17.737C88.5301 17.3777 87.7313 17.198 86.6781 17.198H82.4386ZM87.4153 28.902C88.5388 28.902 89.3815 28.7223 89.9432 28.363C90.5225 28.0037 90.8122 27.4476 90.8122 26.6947C90.8122 25.206 89.6799 24.4617 87.4153 24.4617H82.4386V28.902H87.4153Z" fill="#1D3954"/>
<path d="M114.449 28.6967V32.0333H100.177V14.0667H114.107V17.4033H104.417V21.3047H112.975V24.5387H104.417V28.6967H114.449Z" fill="#1D3954"/>
</g>
<path d="M20.4672 2.34715C21.9485 1.51353 23.7735 1.51353 25.2548 2.34715L38.6069 9.86118C40.0882 10.6948 41.0007 12.2354 41.0007 13.9026V30.0974C41.0007 31.7646 40.0882 33.3052 38.6069 34.1388L25.2548 41.6529C23.7735 42.4865 21.9485 42.4865 20.4672 41.6529L7.1151 34.1388C5.6338 33.3052 4.72128 31.7646 4.72128 30.0974V13.9026C4.72128 12.2354 5.6338 10.6948 7.11511 9.86118L20.4672 2.34715Z" fill="#FF4143"/>
<mask id="mask1" mask-type="alpha" maskUnits="userSpaceOnUse" x="4" y="1" width="38" height="42">
<path d="M20.4672 2.34715C21.9485 1.51353 23.7735 1.51353 25.2548 2.34715L38.6069 9.86118C40.0882 10.6948 41.0007 12.2354 41.0007 13.9026V30.0974C41.0007 31.7646 40.0882 33.3052 38.6069 34.1388L25.2548 41.6529C23.7735 42.4865 21.9485 42.4865 20.4672 41.6529L7.1151 34.1388C5.6338 33.3052 4.72128 31.7646 4.72128 30.0974V13.9026C4.72128 12.2354 5.6338 10.6948 7.11511 9.86118L20.4672 2.34715Z" fill="#FF4143"/>
</mask>
<g mask="url(#mask1)">
<path d="M21.8636 21.2222L5.10681 11.1111H4.30886V33.6667L22.2625 48.0556L21.8636 21.2222Z" fill="url(#paint0_linear)"/>
</g>
<mask id="mask2" mask-type="alpha" maskUnits="userSpaceOnUse" x="4" y="1" width="38" height="42">
<path d="M20.4672 2.34715C21.9485 1.51353 23.7735 1.51353 25.2548 2.34715L38.6069 9.86118C40.0882 10.6948 41.0007 12.2354 41.0007 13.9026V30.0974C41.0007 31.7646 40.0882 33.3052 38.6069 34.1388L25.2548 41.6529C23.7735 42.4865 21.9485 42.4865 20.4672 41.6529L7.1151 34.1388C5.6338 33.3052 4.72128 31.7646 4.72128 30.0974V13.9026C4.72128 12.2354 5.6338 10.6948 7.11511 9.86118L20.4672 2.34715Z" fill="#FF4143"/>
</mask>
<g mask="url(#mask2)">
<path d="M22.6615 20.8333L39.4183 13.0556V34.8333L22.6615 44.5556V20.8333Z" fill="url(#paint1_linear)"/>
</g>
<mask id="mask3" mask-type="alpha" maskUnits="userSpaceOnUse" x="2" y="2" width="38" height="40">
<path d="M18.5521 3.12493C20.0334 2.29131 21.8585 2.29131 23.3398 3.12493L36.6918 10.639C38.1731 11.4726 39.0857 13.0132 39.0857 14.6804V29.7085C39.0857 31.3757 38.1731 32.9163 36.6918 33.7499L23.3398 41.264C21.8585 42.0976 20.0334 42.0976 18.5521 41.264L5.20004 33.7499C3.71873 32.9163 2.80621 31.3757 2.80621 29.7085V14.6804C2.80621 13.0132 3.71873 11.4726 5.20004 10.639L18.5521 3.12493Z" fill="#439AF1"/>
</mask>
<g mask="url(#mask3)">
<path d="M43.7208 32.0333L39.2706 25.7963L34.8995 32.0333H30.0018L36.8218 22.896L30.3441 14.0667H35.1892L39.4286 19.893L43.5891 14.0667H48.1972L41.7722 22.742L48.6449 32.0333H43.7208Z" fill="white"/>
<path d="M60.6813 32.3413C58.0481 32.3413 55.9942 31.6312 54.5196 30.211C53.0625 28.7908 52.334 26.7631 52.334 24.128V14.0667H56.5998V23.974C56.5998 27.1909 57.9691 28.7993 60.7076 28.7993C62.0418 28.7993 63.0599 28.4143 63.7621 27.6443C64.4643 26.8572 64.8154 25.6338 64.8154 23.974V14.0667H69.0285V24.128C69.0285 26.7631 68.2912 28.7908 66.8166 30.211C65.3596 31.6312 63.3145 32.3413 60.6813 32.3413Z" fill="white"/>
<path d="M88.6218 22.6907C89.6751 23.0158 90.5002 23.5633 91.097 24.3333C91.6939 25.0862 91.9923 26.0188 91.9923 27.131C91.9923 28.7052 91.3604 29.9201 90.0964 30.7757C88.85 31.6141 87.0244 32.0333 84.6194 32.0333H75.0872V14.0667H84.0927C86.3397 14.0667 88.0601 14.4859 89.2538 15.3243C90.4651 16.1628 91.0707 17.3007 91.0707 18.738C91.0707 19.6107 90.8513 20.3892 90.4124 21.0737C89.9911 21.7581 89.3942 22.2971 88.6218 22.6907ZM79.3266 17.198V21.433H83.5661C84.6194 21.433 85.4181 21.2533 85.9623 20.894C86.5065 20.5347 86.7786 20.0042 86.7786 19.3027C86.7786 18.6011 86.5065 18.0792 85.9623 17.737C85.4181 17.3777 84.6194 17.198 83.5661 17.198H79.3266ZM84.3034 28.902C85.4269 28.902 86.2695 28.7223 86.8313 28.363C87.4106 28.0037 87.7002 27.4476 87.7002 26.6947C87.7002 25.206 86.5679 24.4617 84.3034 24.4617H79.3266V28.902H84.3034Z" fill="white"/>
<path d="M111.337 28.6967V32.0333H97.0652V14.0667H110.995V17.4033H101.305V21.3047H109.863V24.5387H101.305V28.6967H111.337Z" fill="white"/>
</g>
<path d="M124 29.7778C124 31.0664 122.928 32.1111 121.606 32.1111C120.284 32.1111 119.212 31.0664 119.212 29.7778C119.212 28.4891 120.284 27.4444 121.606 27.4444C122.928 27.4444 124 28.4891 124 29.7778Z" fill="#FF4143"/>
<defs>
<linearGradient id="paint0_linear" x1="3.51092" y1="25.8889" x2="25.0311" y2="22.6181" gradientUnits="userSpaceOnUse">
<stop stop-color="#E73436"/>
<stop offset="0.565604" stop-color="#FF4143" stop-opacity="0"/>
</linearGradient>
<linearGradient id="paint1_linear" x1="21.8636" y1="30.1667" x2="41.1901" y2="19.6459" gradientUnits="userSpaceOnUse">
<stop stop-color="#E73436"/>
<stop offset="0.637842" stop-color="#FF4143" stop-opacity="0"/>
</linearGradient>
</defs>
</svg>
